<svg width="200" height="200" viewBox="0 0 200 200" fill="none" xmlns="http://www.w3.org/2000/svg">
<path d="M79.375 154.583L70.4167 145.625L91.25 125L70.4167 104.375L79.375 95.4167L100 116.25L120.625 95.4167L129.583 104.375L108.75 125L129.583 145.625L120.625 154.583L100 133.75L79.375 154.583ZM37.5 183.333C34.1667 183.333 31.25 182.083 28.75 179.583C26.25 177.083 25 174.167 25 170.833V41.6667C25 38.3333 26.25 35.4167 28.75 32.9167C31.25 30.4167 34.1667 29.1667 37.5 29.1667H51.0417V16.6667H64.5833V29.1667H135.417V16.6667H148.958V29.1667H162.5C165.833 29.1667 168.75 30.4167 171.25 32.9167C173.75 35.4167 175 38.3333 175 41.6667V170.833C175 174.167 173.75 177.083 171.25 179.583C168.75 182.083 165.833 183.333 162.5 183.333H37.5ZM37.5 170.833H162.5V81.25H37.5V170.833ZM37.5 68.75H162.5V41.6667H37.5V68.75Z" fill="white"/>
</svg>
