<svg width="200" height="200" viewBox="0 0 200 200" fill="none" xmlns="http://www.w3.org/2000/svg">
<path d="M99.9963 141.667C101.943 141.667 103.576 141.008 104.896 139.691C106.215 138.374 106.875 136.742 106.875 134.795C106.875 132.848 106.217 131.215 104.9 129.896C103.583 128.576 101.951 127.917 100.004 127.917C98.0569 127.917 96.4237 128.575 95.1043 129.892C93.7848 131.209 93.1251 132.841 93.1251 134.788C93.1251 136.735 93.7836 138.368 95.1005 139.688C96.4176 141.007 98.0495 141.667 99.9963 141.667ZM94.3751 109.792H106.875V57.0833H94.3751V109.792ZM100.056 183.333C88.5647 183.333 77.7661 181.146 67.6597 176.771C57.5533 172.396 48.7154 166.424 41.1459 158.854C33.5765 151.285 27.6042 142.442 23.2292 132.325C18.8542 122.208 16.6667 111.398 16.6667 99.8958C16.6667 88.3932 18.8542 77.5836 23.2292 67.4669C27.6042 57.3501 33.5765 48.5417 41.1459 41.0417C48.7154 33.5417 57.5585 27.6042 67.6753 23.2292C77.792 18.8542 88.6016 16.6667 100.104 16.6667C111.607 16.6667 122.417 18.8542 132.533 23.2292C142.65 27.6042 151.458 33.5417 158.958 41.0417C166.458 48.5417 172.396 57.3611 176.771 67.5C181.146 77.6389 183.333 88.4538 183.333 99.9446C183.333 111.435 181.146 122.234 176.771 132.34C172.396 142.447 166.458 151.272 158.958 158.816C151.458 166.36 142.639 172.332 132.5 176.733C122.361 181.133 111.546 183.333 100.056 183.333ZM100.104 170.833C119.757 170.833 136.458 163.924 150.208 150.104C163.958 136.285 170.833 119.549 170.833 99.8958C170.833 80.2431 163.971 63.5417 150.248 49.7917C136.524 36.0417 119.774 29.1667 100 29.1667C80.4168 29.1667 63.7154 36.0286 49.8959 49.7525C36.0765 63.4765 29.1667 80.2257 29.1667 100C29.1667 119.583 36.0765 136.285 49.8959 150.104C63.7154 163.924 80.4515 170.833 100.104 170.833Z" fill="white"/>
</svg>
